<svg xmlns="http://www.w3.org/2000/svg" xmlns:xlink="http://www.w3.org/1999/xlink" width="96" zoomAndPan="magnify" viewBox="0 0 72 72" height="96" preserveAspectRatio="xMidYMid meet" version="1.0"><defs><clipPath id="d6faa11db5"><path d="M 4 4 L 70.480469 4 L 70.480469 70.351562 L 4 70.351562 Z M 4 4 " clip-rule="nonzero"/></clipPath><clipPath id="cfda47f5a5"><path d="M 1.480469 1.351562 L 38 1.351562 L 38 54 L 1.480469 54 Z M 1.480469 1.351562 " clip-rule="nonzero"/></clipPath><clipPath id="4a0d75abfd"><path d="M 6 6 L 67.753906 6 L 67.753906 68.386719 L 6 68.386719 Z M 6 6 " clip-rule="nonzero"/></clipPath><clipPath id="a044480fb0"><path d="M 4.003906 3.886719 L 38 3.886719 L 38 53 L 4.003906 53 Z M 4.003906 3.886719 " clip-rule="nonzero"/></clipPath><clipPath id="dfdc90412c"><path d="M 11.550781 19.597656 L 63.222656 19.597656 L 63.222656 38.996094 L 11.550781 38.996094 Z M 11.550781 19.597656 " clip-rule="nonzero"/></clipPath><clipPath id="7e8d951906"><path d="M 18.746094 32.3125 L 22.214844 32.3125 L 22.214844 51.769531 L 18.746094 51.769531 Z M 18.746094 32.3125 " clip-rule="nonzero"/></clipPath><clipPath id="10160a1b09"><path d="M 13.570312 21.167969 L 61.253906 21.167969 L 61.253906 39 L 13.570312 39 Z M 13.570312 21.167969 " clip-rule="nonzero"/></clipPath><clipPath id="8d0e42e142"><path d="M 20.203125 32.894531 L 23.402344 32.894531 L 23.402344 50.832031 L 20.203125 50.832031 Z M 20.203125 32.894531 " clip-rule="nonzero"/></clipPath></defs><path fill="#d8da8e" d="M 71.730469 37.5625 C 71.730469 56.574219 56.324219 71.980469 37.3125 71.980469 C 23.871094 71.980469 12.238281 64.277344 6.570312 53.042969 C 4.21875 48.378906 2.898438 43.128906 2.898438 37.550781 C 2.898438 18.554688 18.304688 3.148438 37.3125 3.148438 C 56.324219 3.148438 71.730469 18.554688 71.730469 37.5625 Z M 71.730469 37.5625 " fill-opacity="1" fill-rule="nonzero"/><path fill="#d95961" d="M 37.3125 0.0195312 L 37.3125 37.335938 L 3.988281 54.117188 C 1.433594 49.070312 0 43.359375 0 37.335938 C 0 16.71875 16.699219 0.0195312 37.3125 0.0195312 Z M 37.3125 0.0195312 " fill-opacity="1" fill-rule="nonzero"/><g clip-path="url(#d6faa11db5)"><path fill="#ffffff" d="M 70.515625 37.503906 C 70.515625 55.796875 55.683594 70.628906 37.390625 70.628906 C 24.453125 70.628906 13.257812 63.214844 7.800781 52.402344 C 5.539062 47.914062 4.269531 42.863281 4.269531 37.492188 C 4.269531 19.210938 19.097656 4.382812 37.390625 4.382812 C 55.683594 4.382812 70.515625 19.210938 70.515625 37.503906 Z M 70.515625 37.503906 " fill-opacity="1" fill-rule="nonzero"/></g><g clip-path="url(#cfda47f5a5)"><path fill="#ffffff" d="M 37.390625 1.371094 L 37.390625 37.285156 L 5.316406 53.4375 C 2.859375 48.578125 1.480469 43.082031 1.480469 37.285156 C 1.480469 17.441406 17.550781 1.371094 37.390625 1.371094 Z M 37.390625 1.371094 " fill-opacity="1" fill-rule="nonzero"/></g><g clip-path="url(#4a0d75abfd)"><path fill="#d95961" d="M 67.988281 37.394531 C 67.988281 54.347656 54.246094 68.09375 37.289062 68.09375 C 25.300781 68.09375 14.921875 61.21875 9.867188 51.199219 C 7.769531 47.042969 6.589844 42.359375 6.589844 37.378906 C 6.589844 20.4375 20.335938 6.691406 37.289062 6.691406 C 54.246094 6.691406 67.988281 20.4375 67.988281 37.394531 Z M 67.988281 37.394531 " fill-opacity="1" fill-rule="nonzero"/></g><g clip-path="url(#a044480fb0)"><path fill="#d8da8e" d="M 37.289062 3.902344 L 37.289062 37.1875 L 7.5625 52.160156 C 5.285156 47.65625 4.003906 42.5625 4.003906 37.1875 C 4.003906 18.800781 18.902344 3.902344 37.289062 3.902344 Z M 37.289062 3.902344 " fill-opacity="1" fill-rule="nonzero"/></g><g clip-path="url(#dfdc90412c)"><path fill="#ffffff" d="M 20.9375 25.75 L 20.933594 25.75 M 63.261719 29.257812 L 63.269531 29.253906 L 63.253906 29.253906 L 51.554688 24.882812 L 51.546875 24.875 L 51.539062 24.878906 L 43.457031 21.859375 L 43.453125 21.859375 L 43.449219 21.851562 L 43.441406 21.855469 L 37.40625 19.601562 L 37.410156 19.597656 L 27.722656 23.214844 L 20.933594 25.75 L 11.550781 29.253906 L 23.765625 33.816406 L 24.273438 34.003906 L 31.34375 36.648438 L 37.410156 38.914062 L 44.324219 36.328125 L 50.546875 34.003906 L 52.164062 33.402344 L 63.257812 29.257812 L 63.265625 29.257812 L 63.261719 29.257812 " fill-opacity="1" fill-rule="nonzero"/></g><path fill="#ffffff" d="M 24.273438 35.105469 L 24.273438 40.273438 C 24.273438 40.277344 24.273438 40.28125 24.273438 40.285156 C 24.273438 42.433594 25.730469 44.382812 28.085938 45.796875 C 30.464844 47.226562 33.761719 48.109375 37.410156 48.109375 C 37.878906 48.109375 38.34375 48.09375 38.796875 48.066406 L 38.800781 48.066406 C 42.328125 47.84375 45.441406 46.792969 47.574219 45.242188 C 49.433594 43.890625 50.546875 42.164062 50.546875 40.285156 C 50.546875 40.28125 50.546875 40.277344 50.546875 40.273438 L 50.546875 35.105469 L 37.410156 40.011719 L 24.273438 35.105469 " fill-opacity="1" fill-rule="nonzero"/><g clip-path="url(#7e8d951906)"><path fill="#ffffff" d="M 21.734375 46.773438 L 21.726562 46.703125 L 21.300781 42.273438 L 21.28125 42.078125 L 21.074219 39.945312 L 21.246094 39.945312 L 21.246094 37.574219 C 21.484375 37.359375 21.636719 37.050781 21.636719 36.707031 C 21.636719 36.53125 21.597656 36.363281 21.527344 36.214844 C 21.410156 35.972656 21.214844 35.773438 20.972656 35.65625 L 20.972656 32.773438 L 19.941406 32.390625 L 19.941406 35.667969 C 19.5625 35.859375 19.300781 36.253906 19.300781 36.707031 C 19.300781 37.050781 19.453125 37.359375 19.6875 37.574219 L 19.6875 39.945312 L 19.878906 39.945312 L 19.753906 41.222656 L 19.597656 42.8125 L 19.214844 46.726562 L 19.214844 46.738281 L 19.007812 48.859375 L 18.820312 50.757812 C 18.816406 50.800781 18.816406 50.847656 18.820312 50.886719 C 18.882812 51.410156 19.671875 51.800781 20.582031 51.765625 C 21.492188 51.730469 22.179688 51.28125 22.117188 50.757812 L 21.734375 46.773438 " fill-opacity="1" fill-rule="nonzero"/></g><g clip-path="url(#10160a1b09)"><path fill="#77ba99" d="M 22.222656 26.84375 L 22.222656 26.839844 M 61.25 30.074219 L 61.257812 30.074219 L 61.242188 30.074219 L 50.453125 26.042969 L 50.449219 26.035156 L 50.441406 26.039062 L 42.988281 23.253906 L 42.984375 23.253906 L 42.984375 23.246094 L 42.972656 23.25 L 37.410156 21.171875 L 37.414062 21.167969 L 28.480469 24.503906 L 22.222656 26.839844 L 13.570312 30.074219 L 24.835938 34.277344 L 25.300781 34.453125 L 31.820312 36.890625 L 37.414062 38.976562 L 43.789062 36.597656 L 49.527344 34.453125 L 51.019531 33.894531 L 61.246094 30.074219 L 61.253906 30.074219 L 61.25 30.074219 " fill-opacity="1" fill-rule="nonzero"/></g><path fill="#77ba99" d="M 25.300781 35.46875 L 25.300781 40.230469 C 25.300781 40.234375 25.300781 40.238281 25.300781 40.242188 C 25.300781 42.226562 26.644531 44.019531 28.816406 45.324219 C 31.011719 46.640625 34.050781 47.457031 37.414062 47.457031 C 37.847656 47.457031 38.273438 47.445312 38.695312 47.417969 C 41.949219 47.214844 44.820312 46.242188 46.785156 44.8125 C 48.496094 43.566406 49.527344 41.976562 49.527344 40.242188 C 49.527344 40.238281 49.523438 40.234375 49.523438 40.230469 L 49.527344 40.230469 L 49.527344 35.46875 L 37.414062 39.992188 L 25.300781 35.46875 " fill-opacity="1" fill-rule="nonzero"/><g clip-path="url(#8d0e42e142)"><path fill="#77ba99" d="M 22.957031 46.226562 L 22.953125 46.160156 L 22.558594 42.078125 L 22.542969 41.898438 L 22.351562 39.929688 L 22.511719 39.929688 L 22.511719 37.742188 C 22.730469 37.546875 22.867188 37.261719 22.867188 36.945312 C 22.867188 36.78125 22.832031 36.628906 22.765625 36.488281 C 22.660156 36.265625 22.480469 36.082031 22.257812 35.976562 L 22.257812 33.316406 L 21.308594 32.960938 L 21.308594 35.984375 C 20.957031 36.160156 20.714844 36.523438 20.714844 36.945312 C 20.714844 37.261719 20.855469 37.546875 21.074219 37.742188 L 21.074219 39.929688 L 21.246094 39.929688 L 21.132812 41.109375 L 20.988281 42.574219 L 20.636719 46.179688 L 20.636719 46.195312 L 20.445312 48.152344 L 20.273438 49.902344 C 20.269531 49.9375 20.269531 49.980469 20.273438 50.019531 C 20.332031 50.5 21.058594 50.863281 21.894531 50.828125 C 22.734375 50.796875 23.371094 50.382812 23.3125 49.902344 L 22.957031 46.226562 " fill-opacity="1" fill-rule="nonzero"/></g></svg>